HIERARCHY
ROOT root
{
	OFFSET	0	13.1	24.9
	CHANNELS 6  Xposition Yposition Zposition Xrotation Yrotation Zrotation
	JOINT spine_1
	{
		OFFSET	0	9.99999	0
		CHANNELS 3  Xrotation Yrotation Zrotation
		JOINT spine_2
		{
			OFFSET	0	112	-10
			CHANNELS 3  Xrotation Yrotation Zrotation
			JOINT spine_3
			{
				OFFSET	0	206.5	19.3
				CHANNELS 3  Xrotation Yrotation Zrotation
				JOINT spine_4
				{
					OFFSET	0	110.4	14.6
					CHANNELS 3  Xrotation Yrotation Zrotation
					JOINT neck_1
					{
						OFFSET	0	71.8	-50.3
						CHANNELS 3  Xrotation Yrotation Zrotation
						JOINT neck_2
						{
							OFFSET	0	86.2	-25.8
							CHANNELS 3  Xrotation Yrotation Zrotation
							JOINT head_ee
							{
								OFFSET	0	179.8	-8.7
								CHANNELS 3  Xrotation Yrotation Zrotation
								End Site
								{
									OFFSET	1	0	0
								}
							}
						}
					}
					JOINT left_clavicle
					{
						OFFSET	-43.2	22.4	-70.8
						CHANNELS 3  Xrotation Yrotation Zrotation
						JOINT left_shoulder
						{
							OFFSET	-93.9	-5.79999	48.7
							CHANNELS 3  Xrotation Yrotation Zrotation
							JOINT left_elbow
							{
								OFFSET	-291.4	-30.8	15.2
								CHANNELS 3  Xrotation Yrotation Zrotation
								JOINT left_lowarm_twist
								{
									OFFSET	-110.7	-3.89999	13.6
									CHANNELS 3  Xrotation Yrotation Zrotation
									JOINT left_hand
									{
										OFFSET	-110.7	-3.89999	13.6
										CHANNELS 3  Xrotation Yrotation Zrotation
										JOINT left_ee
										{
											OFFSET	-80.8	-5.10001	12.1
											CHANNELS 3  Xrotation Yrotation Zrotation
											End Site
											{
												OFFSET	1	0	0
											}
										}
									}
								}
							}
						}
					}
					JOINT right_clavicle
					{
						OFFSET	43.2	22.4	-70.8
						CHANNELS 3  Xrotation Yrotation Zrotation
						JOINT right_shoulder
						{
							OFFSET	93.9	-5.79999	48.7
							CHANNELS 3  Xrotation Yrotation Zrotation
							JOINT right_elbow
							{
								OFFSET	291.4	-30.8	15.2
								CHANNELS 3  Xrotation Yrotation Zrotation
								JOINT right_lowarm_twist
								{
									OFFSET	110.7	-3.89999	13.6
									CHANNELS 3  Xrotation Yrotation Zrotation
									JOINT right_hand
									{
										OFFSET	110.7	-3.89999	13.6
										CHANNELS 3  Xrotation Yrotation Zrotation
										JOINT right_ee
										{
											OFFSET	80.8	-5.10001	12.1
											CHANNELS 3  Xrotation Yrotation Zrotation
											End Site
											{
												OFFSET	1	0	0
											}
										}
									}
								}
							}
						}
					}
				}
			}
		}
	}
	JOINT left_hip
	{
		OFFSET	-82.8	-127.5	0.300001
		CHANNELS 3  Xrotation Yrotation Zrotation
		JOINT left_knee
		{
			OFFSET	-28.2	-396.7	2.2
			CHANNELS 3  Xrotation Yrotation Zrotation
			JOINT left_ankle
			{
				OFFSET	-11.7	-411.3	35.4
				CHANNELS 3  Xrotation Yrotation Zrotation
				JOINT left_toes
				{
					OFFSET	0	-60	-88.6
					CHANNELS 3  Xrotation Yrotation Zrotation
					JOINT left_foot_ee
					{
						OFFSET	-22.5	-16.5	-42.2
						CHANNELS 3  Xrotation Yrotation Zrotation
						End Site
						{
							OFFSET	1	0	0
						}
					}
				}
			}
		}
	}
	JOINT right_hip
	{
		OFFSET	82.8	-127.5	0.300001
		CHANNELS 3  Xrotation Yrotation Zrotation
		JOINT right_knee
		{
			OFFSET	28.2	-396.7	2.2
			CHANNELS 3  Xrotation Yrotation Zrotation
			JOINT right_ankle
			{
				OFFSET	11.7	-411.3	35.4
				CHANNELS 3  Xrotation Yrotation Zrotation
				JOINT right_toes
				{
					OFFSET	0	-60	-88.6
					CHANNELS 3  Xrotation Yrotation Zrotation
					JOINT right_foot_ee
					{
						OFFSET	22.5	-16.5	-42.2
						CHANNELS 3  Xrotation Yrotation Zrotation
						End Site
						{
							OFFSET	1	0	0
						}
					}
				}
			}
		}
	}
}
MOTION
Frames: 8
Frame Time: 0.02
3690.52 723.975 -1215.38 6.07517 71.6969 -3.11785 -0.802034 -0.148308 -2.08922 -0.799606 -0.0150948 -2.09442 -0.797467 0.454131 -2.04467 -0.803279 0.125588 -2.09071 -9.64776 11.6123 11.4494 -9.34637 14.033 13.9361 -0.0 0.0 -0.0 3.38519 23.4937 7.36496 -21.2111 -46.7469 60.696 1.08437 -28.2423 0.272808 -9.85867 -0.449802 1.17588 -0.102553 0.0147941 -0.67856 -0.0 0.0 -0.0 7.98354 10.2885 -15.4686 -20.2845 17.4406 -56.1753 0.745441 20.2676 -0.133239 16.7354 -0.283091 2.11146 -1.88218 -28.5322 -0.954111 0.0 0.0 0.0 2.08901 18.1236 -1.56444 -28.8472 0.0864904 4.37962 42.3066 13.8647 -5.11669 -14.6502 0.0 0.0 -0.0 0.0 -0.0 0.12357 -14.9135 1.22463 -19.132 -0.304956 -2.90651 32.9448 32.6318 5.34443 4.67455 -0.0 -0.0 0.0 0.0 0.0 
3687.12 724.708 -1215.05 5.94578 73.1004 -3.31 -0.814954 -0.185977 -2.12979 -0.812431 -0.0501073 -2.1373 -0.808858 0.430009 -2.09422 -0.814967 0.0939487 -2.13582 -9.60742 11.6017 11.177 -9.3238 14.1902 13.6672 -0.0 0.0 -0.0 3.6356 23.6049 7.71189 -22.0235 -46.0972 60.5828 1.03147 -27.0646 0.248255 -9.83124 -0.448273 1.17272 -0.157209 0.384884 -0.8866 -0.0 0.0 -0.0 8.24386 10.2721 -16.0265 -20.1704 17.7785 -55.9123 0.754098 20.4835 -0.136253 16.7867 -0.283004 2.11802 -1.92286 -28.6739 -0.80254 0.0 0.0 0.0 3.42434 19.7035 -1.1841 -31.0491 0.00245695 4.70706 42.0861 14.5393 -5.10801 -14.3526 0.0 0.0 -0.0 0.0 -0.0 0.0169712 -15.835 1.54402 -18.6162 -0.30954 -2.82749 33.4265 32.9984 5.42934 4.24852 -0.0 -0.0 0.0 0.0 0.0 
3684.54 725.235 -1213.33 7.55405 73.4992 -5.22324 -0.8631 -0.202095 -2.04078 -0.860786 -0.0718527 -2.0495 -0.856592 0.390796 -2.0132 -0.862242 0.0680139 -2.04963 -9.16162 11.6519 10.9206 -8.88802 14.3438 13.3882 -0.0 0.0 -0.0 3.74279 23.5678 7.86013 -22.7573 -45.1406 61.2879 0.996116 -26.2633 0.23239 -9.83283 -0.448361 1.17291 -0.231055 0.601384 -1.28722 -0.0 0.0 -0.0 8.60331 10.1198 -16.8025 -19.5528 18.0566 -55.4026 0.714408 19.4887 -0.122687 16.7225 -0.283112 2.10982 -2.02224 -28.7887 -0.323857 0.0 0.0 0.0 5.63469 20.6059 -2.54294 -36.322 -0.249505 5.47651 41.4425 15.1563 -5.0624 -14.0303 0.0 0.0 -0.0 0.0 -0.0 -0.857226 -16.1375 2.38905 -18.1369 -0.31316 -2.75404 33.5786 33.7626 5.50619 3.15175 -0.0 -0.0 0.0 0.0 0.0 
3679.45 724.241 -1213.69 7.7885 74.6924 -5.85973 -0.894258 -0.126135 -2.00411 -0.892023 0.00162161 -2.00807 -0.890589 0.45427 -1.95604 -0.895902 0.139714 -2.00321 -8.91361 11.6892 10.6394 -8.65418 14.5452 13.1005 -0.0 0.0 -0.0 3.57977 23.5641 7.63458 -23.2826 -44.6956 61.4373 0.971808 -25.7059 0.221739 -9.76424 -0.444542 1.16501 -0.291887 0.914535 -1.55941 -0.0 0.0 -0.0 8.78828 10.7181 -17.1852 -18.9876 18.5747 -54.9902 0.726662 19.7972 -0.126806 16.7214 -0.283114 2.10969 -2.0199 -28.7266 -0.306398 0.0 0.0 0.0 8.56044 21.0599 -3.88486 -40.0317 -0.468783 6.00272 40.9769 15.5472 -5.02808 -13.7308 0.0 0.0 -0.0 0.0 -0.0 -1.58206 -16.5829 2.85412 -17.4317 -0.31737 -2.64592 33.7783 33.5059 5.51 2.55266 -0.0 -0.0 0.0 0.0 0.0 
3676.49 726.109 -1215.18 11.8915 73.833 -9.86033 -1.15547 -0.0442448 -1.97398 -1.1533 0.0814296 -1.9728 -1.15463 0.532877 -1.90124 -1.15961 0.225986 -1.96151 -8.8179 11.626 10.4838 -8.56576 14.5103 12.9259 -0.0 0.0 -0.0 3.26525 23.0802 7.19332 -24.0867 -44.0955 62.4456 0.958469 -25.3978 0.215986 -9.48662 -0.429182 1.13299 -0.331005 1.11979 -1.73245 -0.0 0.0 -0.0 9.34546 11.9236 -18.3615 -17.8962 19.494 -54.4569 0.726448 19.7918 -0.126734 16.8161 -0.282952 2.12177 -1.93238 -28.7154 -0.771183 0.0 0.0 0.0 14.75 16.9036 -7.40787 -41.2077 -0.545383 6.1665 38.7006 15.7477 -4.82555 -13.7787 0.0 0.0 -0.0 0.0 -0.0 -3.00955 -16.8633 3.11462 -17.3654 -0.317697 -2.63576 33.9522 33.4924 5.52957 1.60405 -0.0 -0.0 0.0 0.0 0.0 
3678.23 725.859 -1220.68 10.269 74.1939 -8.03084 -1.26254 -0.085281 -2.11636 -1.26005 0.0495307 -2.1175 -1.26006 0.538889 -2.04841 -1.26586 0.208694 -2.10778 -9.47187 11.4187 10.2552 -9.24289 14.4462 12.7214 -0.0 0.0 -0.0 3.07978 18.9735 6.8356 -25.0519 -43.7915 64.5068 0.952175 -25.2519 0.213294 -9.20366 -0.413687 1.10028 -0.288102 1.47069 -1.29732 -0.0 0.0 -0.0 9.93222 12.5994 -19.6298 -16.8064 20.3896 -54.2149 0.672544 18.426 -0.109086 16.6877 -0.283166 2.10538 -1.99681 -28.5518 -0.346204 0.0 0.0 0.0 15.8825 12.1628 -6.93197 -40.6854 -0.510949 6.09396 36.4753 16.25 -4.62149 -13.9974 0.0 0.0 -0.0 0.0 -0.0 -2.94311 -15.3137 1.93142 -16.6073 -0.320604 -2.51948 35.0971 33.587 5.67048 0.923499 -0.0 -0.0 0.0 0.0 0.0 
3677.35 722.15 -1226.74 9.34097 72.9014 -6.75572 -1.28955 0.0271627 -2.22306 -1.28682 0.168532 -2.21683 -1.29151 0.678933 -2.11707 -1.29761 0.336146 -2.19768 -8.9131 11.6929 10.3792 -8.66992 14.7346 12.8489 -0.0 0.0 -0.0 1.85614 20.2055 5.07047 -23.4514 -43.5976 67.0695 0.944974 -25.0845 0.210231 -8.87697 -0.395998 1.06242 -0.404189 1.8123 -1.92334 -0.0 0.0 -0.0 10.5495 14.5308 -20.9366 -15.4936 21.2528 -53.8944 0.657756 18.0474 -0.104458 17.3581 -0.281642 2.19099 -1.68008 -28.4475 -2.00398 0.0 0.0 0.0 18.1956 9.2318 -8.13327 -39.0104 -0.405011 5.85925 32.7316 15.988 -4.23892 -14.7109 0.0 0.0 -0.0 0.0 -0.0 -3.76956 -17.233 0.829852 -16.3132 -0.321317 -2.47437 35.9143 33.5955 5.76397 0.38714 -0.0 -0.0 0.0 0.0 0.0 
3674.1 721.708 -1229.81 9.30728 72.9489 -6.29898 -1.28787 0.0366346 -2.12876 -1.28536 0.171988 -2.12212 -1.29008 0.66022 -2.02417 -1.29564 0.332329 -2.10299 -8.70144 11.6438 10.2697 -8.46055 14.6643 12.7107 -0.0 0.0 -0.0 1.47486 19.7564 4.48 -23.5598 -43.3142 68.0963 0.943902 -25.0595 0.209777 -8.77038 -0.390274 1.05004 -0.44817 1.83827 -2.20453 -0.0 0.0 -0.0 10.9422 15.7446 -21.7687 -14.4732 21.8865 -54.0285 0.657266 18.0348 -0.104307 17.6141 -0.280796 2.22368 -1.45038 -27.8386 -2.97337 0.0 0.0 0.0 18.84 8.18157 -8.80245 -36.4629 -0.257208 5.49675 29.5853 15.2083 -3.89148 -15.3698 0.0 0.0 -0.0 0.0 -0.0 -4.50271 -17.3337 -0.289559 -16.1368 -0.321634 -2.4473 37.2209 33.731 5.91915 0.0716186 -0.0 -0.0 0.0 0.0 0.0 
